<svg width="333" height="76" viewBox="0 0 333 76" fill="none" xmlns="http://www.w3.org/2000/svg">
<rect y="5.73242" width="0.636936" height="0.636936" fill="black"/>
<rect y="5.09521" width="0.636936" height="0.636936" fill="black"/>
<rect y="4.4585" width="0.636936" height="0.636936" fill="black"/>
<rect y="3.82129" width="0.636936" height="0.636936" fill="black"/>
<rect y="3.18457" width="0.636936" height="0.636936" fill="black"/>
<rect x="5.35034" y="8.91699" width="0.636936" height="0.636936" fill="black"/>
<rect x="5.35034" y="8.27979" width="0.636936" height="0.636936" fill="white"/>
<rect x="5.35034" y="7.64355" width="0.636936" height="0.636936" fill="white"/>
<rect x="5.35034" y="7.00635" width="0.636936" height="0.636936" fill="white"/>
<rect x="5.35034" y="6.36914" width="0.636936" height="0.636936" fill="white"/>
<rect x="5.35034" y="5.73242" width="0.636936" height="0.636936" fill="white"/>
<rect x="5.35034" y="5.09521" width="0.636936" height="0.636936" fill="black"/>
<rect x="5.35034" y="4.4585" width="0.636936" height="0.636936" fill="white"/>
<rect x="5.35034" y="3.82129" width="0.636936" height="0.636936" fill="white"/>
<rect x="5.35034" y="3.18457" width="0.636936" height="0.636936" fill="black"/>
<rect x="5.35034" y="2.54736" width="0.636936" height="0.636936" fill="black"/>
<rect x="5.35034" y="1.91113" width="0.636936" height="0.636936" fill="black"/>
<rect x="5.35034" y="1.27393" width="0.636936" height="0.636936" fill="black"/>
<rect x="5.35034" y="0.637207" width="0.636936" height="0.636936" fill="black"/>
<rect x="5.35034" width="0.636936" height="0.636936" fill="black"/>
<rect x="2.67505" y="8.27979" width="0.636936" height="0.636936" fill="black"/>
<rect x="2.67505" y="7.64355" width="0.636936" height="0.636936" fill="white"/>
<rect x="2.67505" y="7.00635" width="0.636936" height="0.636936" fill="white"/>
<rect x="2.67505" y="6.36914" width="0.636936" height="0.636936" fill="white"/>
<rect x="2.67505" y="5.73242" width="0.636936" height="0.636936" fill="white"/>
<rect x="2.67505" y="5.09521" width="0.636936" height="0.636936" fill="white"/>
<rect x="2.67505" y="4.4585" width="0.636936" height="0.636936" fill="black"/>
<rect x="2.67505" y="3.82129" width="0.636936" height="0.636936" fill="black"/>
<rect x="2.67505" y="3.18457" width="0.636936" height="0.636936" fill="black"/>
<rect x="2.67505" y="2.54736" width="0.636936" height="0.636936" fill="black"/>
<rect x="2.67505" y="1.91113" width="0.636936" height="0.636936" fill="black"/>
<rect x="2.67505" y="1.27393" width="0.636936" height="0.636936" fill="black"/>
<rect x="2.67505" y="0.637207" width="0.636936" height="0.636936" fill="black"/>
<rect x="8.02539" y="7.64355" width="0.636936" height="0.636936" fill="black"/>
<rect x="8.02539" y="7.00635" width="0.636936" height="0.636936" fill="white"/>
<rect x="8.02539" y="6.36914" width="0.636936" height="0.636936" fill="white"/>
<rect x="8.02539" y="5.73242" width="0.636936" height="0.636936" fill="white"/>
<rect x="8.02539" y="5.09521" width="0.636936" height="0.636936" fill="white"/>
<rect x="8.02539" y="4.4585" width="0.636936" height="0.636936" fill="black"/>
<rect x="8.02539" y="3.82129" width="0.636936" height="0.636936" fill="black"/>
<rect x="8.02539" y="3.18457" width="0.636936" height="0.636936" fill="black"/>
<rect x="8.02539" y="2.54736" width="0.636936" height="0.636936" fill="black"/>
<rect x="8.02539" y="1.91113" width="0.636936" height="0.636936" fill="black"/>
<rect x="8.02539" y="1.27393" width="0.636936" height="0.636936" fill="black"/>
<rect x="0.668945" y="7.00635" width="0.636936" height="0.636936" fill="black"/>
<rect x="0.668945" y="6.36914" width="0.636936" height="0.636936" fill="black"/>
<rect x="0.668945" y="5.73242" width="0.636936" height="0.636936" fill="white"/>
<rect x="0.668945" y="5.09521" width="0.636936" height="0.636936" fill="white"/>
<rect x="0.668945" y="4.4585" width="0.636936" height="0.636936" fill="black"/>
<rect x="0.668945" y="3.82129" width="0.636936" height="0.636936" fill="black"/>
<rect x="0.668945" y="3.18457" width="0.636936" height="0.636936" fill="black"/>
<rect x="0.668945" y="2.54736" width="0.636936" height="0.636936" fill="black"/>
<rect x="0.668945" y="1.91113" width="0.636936" height="0.636936" fill="black"/>
<rect x="6.01904" y="8.91699" width="0.636936" height="0.636936" fill="black"/>
<rect x="6.01904" y="8.27979" width="0.636936" height="0.636936" fill="white"/>
<rect x="6.01904" y="7.64355" width="0.636936" height="0.636936" fill="white"/>
<rect x="6.01904" y="7.00635" width="0.636936" height="0.636936" fill="white"/>
<rect x="6.01904" y="6.36914" width="0.636936" height="0.636936" fill="white"/>
<rect x="6.01904" y="5.73242" width="0.636936" height="0.636936" fill="white"/>
<rect x="6.01904" y="5.09521" width="0.636936" height="0.636936" fill="white"/>
<rect x="6.01904" y="4.4585" width="0.636936" height="0.636936" fill="black"/>
<rect x="6.01904" y="3.82129" width="0.636936" height="0.636936" fill="black"/>
<rect x="6.01904" y="3.18457" width="0.636936" height="0.636936" fill="black"/>
<rect x="6.01904" y="2.54736" width="0.636936" height="0.636936" fill="black"/>
<rect x="6.01904" y="1.91113" width="0.636936" height="0.636936" fill="black"/>
<rect x="6.01904" y="1.27393" width="0.636936" height="0.636936" fill="black"/>
<rect x="6.01904" y="0.637207" width="0.636936" height="0.636936" fill="black"/>
<rect x="6.01904" width="0.636936" height="0.636936" fill="black"/>
<rect x="3.34399" y="8.91699" width="0.636936" height="0.636936" fill="black"/>
<rect x="3.34399" y="8.27979" width="0.636936" height="0.636936" fill="white"/>
<rect x="3.34399" y="7.64355" width="0.636936" height="0.636936" fill="white"/>
<rect x="3.34399" y="7.00635" width="0.636936" height="0.636936" fill="white"/>
<rect x="3.34399" y="6.36914" width="0.636936" height="0.636936" fill="white"/>
<rect x="3.34399" y="5.73242" width="0.636936" height="0.636936" fill="white"/>
<rect x="3.34399" y="5.09521" width="0.636936" height="0.636936" fill="white"/>
<rect x="3.34399" y="4.4585" width="0.636936" height="0.636936" fill="black"/>
<rect x="3.34399" y="3.82129" width="0.636936" height="0.636936" fill="black"/>
<rect x="3.34399" y="3.18457" width="0.636936" height="0.636936" fill="black"/>
<rect x="3.34399" y="2.54736" width="0.636936" height="0.636936" fill="black"/>
<rect x="3.34399" y="1.91113" width="0.636936" height="0.636936" fill="black"/>
<rect x="3.34399" y="1.27393" width="0.636936" height="0.636936" fill="black"/>
<rect x="3.34399" y="0.637207" width="0.636936" height="0.636936" fill="black"/>
<rect x="3.34399" width="0.636936" height="0.636936" fill="black"/>
<rect x="8.69409" y="7.00635" width="0.636936" height="0.636936" fill="black"/>
<rect x="8.69409" y="6.36914" width="0.636936" height="0.636936" fill="black"/>
<rect x="8.69409" y="5.73242" width="0.636936" height="0.636936" fill="white"/>
<rect x="8.69409" y="5.09521" width="0.636936" height="0.636936" fill="white"/>
<rect x="8.69409" y="4.4585" width="0.636936" height="0.636936" fill="black"/>
<rect x="8.69409" y="3.82129" width="0.636936" height="0.636936" fill="black"/>
<rect x="8.69409" y="3.18457" width="0.636936" height="0.636936" fill="black"/>
<rect x="8.69409" y="2.54736" width="0.636936" height="0.636936" fill="black"/>
<rect x="8.69409" y="1.91113" width="0.636936" height="0.636936" fill="black"/>
<rect x="1.33765" y="7.64355" width="0.636936" height="0.636936" fill="black"/>
<rect x="1.33765" y="7.00635" width="0.636936" height="0.636936" fill="white"/>
<rect x="1.33765" y="6.36914" width="0.636936" height="0.636936" fill="white"/>
<rect x="1.33765" y="5.73242" width="0.636936" height="0.636936" fill="white"/>
<rect x="1.33765" y="5.09521" width="0.636936" height="0.636936" fill="white"/>
<rect x="1.33765" y="4.4585" width="0.636936" height="0.636936" fill="black"/>
<rect x="1.33765" y="3.82129" width="0.636936" height="0.636936" fill="black"/>
<rect x="1.33765" y="3.18457" width="0.636936" height="0.636936" fill="black"/>
<rect x="1.33765" y="2.54736" width="0.636936" height="0.636936" fill="black"/>
<rect x="1.33765" y="1.91113" width="0.636936" height="0.636936" fill="black"/>
<rect x="1.33765" y="1.27393" width="0.636936" height="0.636936" fill="black"/>
<rect x="6.68799" y="8.27979" width="0.636936" height="0.636936" fill="black"/>
<rect x="6.68799" y="7.64355" width="0.636936" height="0.636936" fill="white"/>
<rect x="6.68799" y="7.00635" width="0.636936" height="0.636936" fill="white"/>
<rect x="6.68799" y="6.36914" width="0.636936" height="0.636936" fill="white"/>
<rect x="6.68799" y="5.73242" width="0.636936" height="0.636936" fill="white"/>
<rect x="6.68799" y="5.09521" width="0.636936" height="0.636936" fill="white"/>
<rect x="6.68799" y="4.4585" width="0.636936" height="0.636936" fill="black"/>
<rect x="6.68799" y="3.82129" width="0.636936" height="0.636936" fill="black"/>
<rect x="6.68799" y="3.18457" width="0.636936" height="0.636936" fill="black"/>
<rect x="6.68799" y="2.54736" width="0.636936" height="0.636936" fill="black"/>
<rect x="6.68799" y="1.91113" width="0.636936" height="0.636936" fill="black"/>
<rect x="6.68799" y="1.27393" width="0.636936" height="0.636936" fill="black"/>
<rect x="6.68799" y="0.637207" width="0.636936" height="0.636936" fill="black"/>
<rect x="4.0127" y="8.91699" width="0.636936" height="0.636936" fill="black"/>
<rect x="4.0127" y="8.27979" width="0.636936" height="0.636936" fill="white"/>
<rect x="4.0127" y="7.64355" width="0.636936" height="0.636936" fill="white"/>
<rect x="4.0127" y="7.00635" width="0.636936" height="0.636936" fill="white"/>
<rect x="4.0127" y="6.36914" width="0.636936" height="0.636936" fill="white"/>
<rect x="4.0127" y="5.73242" width="0.636936" height="0.636936" fill="white"/>
<rect x="4.0127" y="5.09521" width="0.636936" height="0.636936" fill="black"/>
<rect x="4.0127" y="4.4585" width="0.636936" height="0.636936" fill="white"/>
<rect x="4.0127" y="3.82129" width="0.636936" height="0.636936" fill="white"/>
<rect x="4.0127" y="3.18457" width="0.636936" height="0.636936" fill="black"/>
<rect x="4.0127" y="2.54736" width="0.636936" height="0.636936" fill="black"/>
<rect x="4.0127" y="1.91113" width="0.636936" height="0.636936" fill="black"/>
<rect x="4.0127" y="1.27393" width="0.636936" height="0.636936" fill="black"/>
<rect x="4.0127" y="0.637207" width="0.636936" height="0.636936" fill="black"/>
<rect x="4.0127" width="0.636936" height="0.636936" fill="black"/>
<rect x="9.36304" y="5.73242" width="0.636936" height="0.636936" fill="black"/>
<rect x="9.36304" y="5.09521" width="0.636936" height="0.636936" fill="black"/>
<rect x="9.36304" y="4.4585" width="0.636936" height="0.636936" fill="black"/>
<rect x="9.36304" y="3.82129" width="0.636936" height="0.636936" fill="black"/>
<rect x="9.36304" y="3.18457" width="0.636936" height="0.636936" fill="black"/>
<rect x="2.0061" y="8.27979" width="0.636936" height="0.636936" fill="black"/>
<rect x="2.0061" y="7.64355" width="0.636936" height="0.636936" fill="white"/>
<rect x="2.0061" y="7.00635" width="0.636936" height="0.636936" fill="white"/>
<rect x="2.0061" y="6.36914" width="0.636936" height="0.636936" fill="white"/>
<rect x="2.0061" y="5.73242" width="0.636936" height="0.636936" fill="white"/>
<rect x="2.0061" y="5.09521" width="0.636936" height="0.636936" fill="white"/>
<rect x="2.0061" y="4.4585" width="0.636936" height="0.636936" fill="black"/>
<rect x="2.0061" y="3.82129" width="0.636936" height="0.636936" fill="black"/>
<rect x="2.0061" y="3.18457" width="0.636936" height="0.636936" fill="black"/>
<rect x="2.0061" y="2.54736" width="0.636936" height="0.636936" fill="black"/>
<rect x="2.0061" y="1.91113" width="0.636936" height="0.636936" fill="black"/>
<rect x="2.0061" y="1.27393" width="0.636936" height="0.636936" fill="black"/>
<rect x="2.0061" y="0.637207" width="0.636936" height="0.636936" fill="black"/>
<rect x="7.35645" y="8.27979" width="0.636936" height="0.636936" fill="black"/>
<rect x="7.35645" y="7.64355" width="0.636936" height="0.636936" fill="white"/>
<rect x="7.35645" y="7.00635" width="0.636936" height="0.636936" fill="white"/>
<rect x="7.35645" y="6.36914" width="0.636936" height="0.636936" fill="white"/>
<rect x="7.35645" y="5.73242" width="0.636936" height="0.636936" fill="white"/>
<rect x="7.35645" y="5.09521" width="0.636936" height="0.636936" fill="white"/>
<rect x="7.35645" y="4.4585" width="0.636936" height="0.636936" fill="black"/>
<rect x="7.35645" y="3.82129" width="0.636936" height="0.636936" fill="black"/>
<rect x="7.35645" y="3.18457" width="0.636936" height="0.636936" fill="black"/>
<rect x="7.35645" y="2.54736" width="0.636936" height="0.636936" fill="black"/>
<rect x="7.35645" y="1.91113" width="0.636936" height="0.636936" fill="black"/>
<rect x="7.35645" y="1.27393" width="0.636936" height="0.636936" fill="black"/>
<rect x="7.35645" y="0.637207" width="0.636936" height="0.636936" fill="black"/>
<rect x="4.6814" y="8.91699" width="0.636936" height="0.636936" fill="black"/>
<rect x="4.6814" y="8.27979" width="0.636936" height="0.636936" fill="white"/>
<rect x="4.6814" y="7.64355" width="0.636936" height="0.636936" fill="white"/>
<rect x="4.6814" y="7.00635" width="0.636936" height="0.636936" fill="white"/>
<rect x="4.6814" y="6.36914" width="0.636936" height="0.636936" fill="white"/>
<rect x="4.6814" y="5.73242" width="0.636936" height="0.636936" fill="white"/>
<rect x="4.6814" y="5.09521" width="0.636936" height="0.636936" fill="black"/>
<rect x="4.6814" y="4.4585" width="0.636936" height="0.636936" fill="white"/>
<rect x="4.6814" y="3.82129" width="0.636936" height="0.636936" fill="white"/>
<rect x="4.6814" y="3.18457" width="0.636936" height="0.636936" fill="black"/>
<rect x="4.6814" y="2.54736" width="0.636936" height="0.636936" fill="black"/>
<rect x="4.6814" y="1.91113" width="0.636936" height="0.636936" fill="black"/>
<rect x="4.6814" y="1.27393" width="0.636936" height="0.636936" fill="black"/>
<rect x="4.6814" y="0.637207" width="0.636936" height="0.636936" fill="black"/>
<rect x="4.6814" width="0.636936" height="0.636936" fill="black"/>
<rect x="323" y="6.73242" width="0.636936" height="0.636936" fill="black"/>
<rect x="323" y="6.09521" width="0.636936" height="0.636936" fill="black"/>
<rect x="323" y="5.4585" width="0.636936" height="0.636936" fill="black"/>
<rect x="323" y="4.82129" width="0.636936" height="0.636936" fill="black"/>
<rect x="323" y="4.18457" width="0.636936" height="0.636936" fill="black"/>
<rect x="328.35" y="9.91699" width="0.636936" height="0.636936" fill="black"/>
<rect x="328.35" y="9.27979" width="0.636936" height="0.636936" fill="white"/>
<rect x="328.35" y="8.64355" width="0.636936" height="0.636936" fill="white"/>
<rect x="328.35" y="8.00635" width="0.636936" height="0.636936" fill="white"/>
<rect x="328.35" y="7.36914" width="0.636936" height="0.636936" fill="white"/>
<rect x="328.35" y="6.73242" width="0.636936" height="0.636936" fill="white"/>
<rect x="328.35" y="6.09521" width="0.636936" height="0.636936" fill="black"/>
<rect x="328.35" y="5.4585" width="0.636936" height="0.636936" fill="white"/>
<rect x="328.35" y="4.82129" width="0.636936" height="0.636936" fill="white"/>
<rect x="328.35" y="4.18457" width="0.636936" height="0.636936" fill="black"/>
<rect x="328.35" y="3.54736" width="0.636936" height="0.636936" fill="black"/>
<rect x="328.35" y="2.91113" width="0.636936" height="0.636936" fill="black"/>
<rect x="328.35" y="2.27393" width="0.636936" height="0.636936" fill="black"/>
<rect x="328.35" y="1.63721" width="0.636936" height="0.636936" fill="black"/>
<rect x="328.35" y="1" width="0.636936" height="0.636936" fill="black"/>
<rect x="325.675" y="9.27979" width="0.636936" height="0.636936" fill="black"/>
<rect x="325.675" y="8.64355" width="0.636936" height="0.636936" fill="white"/>
<rect x="325.675" y="8.00635" width="0.636936" height="0.636936" fill="white"/>
<rect x="325.675" y="7.36914" width="0.636936" height="0.636936" fill="white"/>
<rect x="325.675" y="6.73242" width="0.636936" height="0.636936" fill="white"/>
<rect x="325.675" y="6.09521" width="0.636936" height="0.636936" fill="white"/>
<rect x="325.675" y="5.4585" width="0.636936" height="0.636936" fill="black"/>
<rect x="325.675" y="4.82129" width="0.636936" height="0.636936" fill="black"/>
<rect x="325.675" y="4.18457" width="0.636936" height="0.636936" fill="black"/>
<rect x="325.675" y="3.54736" width="0.636936" height="0.636936" fill="black"/>
<rect x="325.675" y="2.91113" width="0.636936" height="0.636936" fill="black"/>
<rect x="325.675" y="2.27393" width="0.636936" height="0.636936" fill="black"/>
<rect x="325.675" y="1.63721" width="0.636936" height="0.636936" fill="black"/>
<rect x="331.025" y="8.64355" width="0.636936" height="0.636936" fill="black"/>
<rect x="331.025" y="8.00635" width="0.636936" height="0.636936" fill="white"/>
<rect x="331.025" y="7.36914" width="0.636936" height="0.636936" fill="white"/>
<rect x="331.025" y="6.73242" width="0.636936" height="0.636936" fill="white"/>
<rect x="331.025" y="6.09521" width="0.636936" height="0.636936" fill="white"/>
<rect x="331.025" y="5.4585" width="0.636936" height="0.636936" fill="black"/>
<rect x="331.025" y="4.82129" width="0.636936" height="0.636936" fill="black"/>
<rect x="331.025" y="4.18457" width="0.636936" height="0.636936" fill="black"/>
<rect x="331.025" y="3.54736" width="0.636936" height="0.636936" fill="black"/>
<rect x="331.025" y="2.91113" width="0.636936" height="0.636936" fill="black"/>
<rect x="331.025" y="2.27393" width="0.636936" height="0.636936" fill="black"/>
<rect x="323.669" y="8.00635" width="0.636936" height="0.636936" fill="black"/>
<rect x="323.669" y="7.36914" width="0.636936" height="0.636936" fill="black"/>
<rect x="323.669" y="6.73242" width="0.636936" height="0.636936" fill="white"/>
<rect x="323.669" y="6.09521" width="0.636936" height="0.636936" fill="white"/>
<rect x="323.669" y="5.4585" width="0.636936" height="0.636936" fill="black"/>
<rect x="323.669" y="4.82129" width="0.636936" height="0.636936" fill="black"/>
<rect x="323.669" y="4.18457" width="0.636936" height="0.636936" fill="black"/>
<rect x="323.669" y="3.54736" width="0.636936" height="0.636936" fill="black"/>
<rect x="323.669" y="2.91113" width="0.636936" height="0.636936" fill="black"/>
<rect x="329.019" y="9.91699" width="0.636936" height="0.636936" fill="black"/>
<rect x="329.019" y="9.27979" width="0.636936" height="0.636936" fill="white"/>
<rect x="329.019" y="8.64355" width="0.636936" height="0.636936" fill="white"/>
<rect x="329.019" y="8.00635" width="0.636936" height="0.636936" fill="white"/>
<rect x="329.019" y="7.36914" width="0.636936" height="0.636936" fill="white"/>
<rect x="329.019" y="6.73242" width="0.636936" height="0.636936" fill="white"/>
<rect x="329.019" y="6.09521" width="0.636936" height="0.636936" fill="white"/>
<rect x="329.019" y="5.4585" width="0.636936" height="0.636936" fill="black"/>
<rect x="329.019" y="4.82129" width="0.636936" height="0.636936" fill="black"/>
<rect x="329.019" y="4.18457" width="0.636936" height="0.636936" fill="black"/>
<rect x="329.019" y="3.54736" width="0.636936" height="0.636936" fill="black"/>
<rect x="329.019" y="2.91113" width="0.636936" height="0.636936" fill="black"/>
<rect x="329.019" y="2.27393" width="0.636936" height="0.636936" fill="black"/>
<rect x="329.019" y="1.63721" width="0.636936" height="0.636936" fill="black"/>
<rect x="329.019" y="1" width="0.636936" height="0.636936" fill="black"/>
<rect x="326.344" y="9.91699" width="0.636936" height="0.636936" fill="black"/>
<rect x="326.344" y="9.27979" width="0.636936" height="0.636936" fill="white"/>
<rect x="326.344" y="8.64355" width="0.636936" height="0.636936" fill="white"/>
<rect x="326.344" y="8.00635" width="0.636936" height="0.636936" fill="white"/>
<rect x="326.344" y="7.36914" width="0.636936" height="0.636936" fill="white"/>
<rect x="326.344" y="6.73242" width="0.636936" height="0.636936" fill="white"/>
<rect x="326.344" y="6.09521" width="0.636936" height="0.636936" fill="white"/>
<rect x="326.344" y="5.4585" width="0.636936" height="0.636936" fill="black"/>
<rect x="326.344" y="4.82129" width="0.636936" height="0.636936" fill="black"/>
<rect x="326.344" y="4.18457" width="0.636936" height="0.636936" fill="black"/>
<rect x="326.344" y="3.54736" width="0.636936" height="0.636936" fill="black"/>
<rect x="326.344" y="2.91113" width="0.636936" height="0.636936" fill="black"/>
<rect x="326.344" y="2.27393" width="0.636936" height="0.636936" fill="black"/>
<rect x="326.344" y="1.63721" width="0.636936" height="0.636936" fill="black"/>
<rect x="326.344" y="1" width="0.636936" height="0.636936" fill="black"/>
<rect x="331.694" y="8.00635" width="0.636936" height="0.636936" fill="black"/>
<rect x="331.694" y="7.36914" width="0.636936" height="0.636936" fill="black"/>
<rect x="331.694" y="6.73242" width="0.636936" height="0.636936" fill="white"/>
<rect x="331.694" y="6.09521" width="0.636936" height="0.636936" fill="white"/>
<rect x="331.694" y="5.4585" width="0.636936" height="0.636936" fill="black"/>
<rect x="331.694" y="4.82129" width="0.636936" height="0.636936" fill="black"/>
<rect x="331.694" y="4.18457" width="0.636936" height="0.636936" fill="black"/>
<rect x="331.694" y="3.54736" width="0.636936" height="0.636936" fill="black"/>
<rect x="331.694" y="2.91113" width="0.636936" height="0.636936" fill="black"/>
<rect x="324.338" y="8.64355" width="0.636936" height="0.636936" fill="black"/>
<rect x="324.338" y="8.00635" width="0.636936" height="0.636936" fill="white"/>
<rect x="324.338" y="7.36914" width="0.636936" height="0.636936" fill="white"/>
<rect x="324.338" y="6.73242" width="0.636936" height="0.636936" fill="white"/>
<rect x="324.338" y="6.09521" width="0.636936" height="0.636936" fill="white"/>
<rect x="324.338" y="5.4585" width="0.636936" height="0.636936" fill="black"/>
<rect x="324.338" y="4.82129" width="0.636936" height="0.636936" fill="black"/>
<rect x="324.338" y="4.18457" width="0.636936" height="0.636936" fill="black"/>
<rect x="324.338" y="3.54736" width="0.636936" height="0.636936" fill="black"/>
<rect x="324.338" y="2.91113" width="0.636936" height="0.636936" fill="black"/>
<rect x="324.338" y="2.27393" width="0.636936" height="0.636936" fill="black"/>
<rect x="329.688" y="9.27979" width="0.636936" height="0.636936" fill="black"/>
<rect x="329.688" y="8.64355" width="0.636936" height="0.636936" fill="white"/>
<rect x="329.688" y="8.00635" width="0.636936" height="0.636936" fill="white"/>
<rect x="329.688" y="7.36914" width="0.636936" height="0.636936" fill="white"/>
<rect x="329.688" y="6.73242" width="0.636936" height="0.636936" fill="white"/>
<rect x="329.688" y="6.09521" width="0.636936" height="0.636936" fill="white"/>
<rect x="329.688" y="5.4585" width="0.636936" height="0.636936" fill="black"/>
<rect x="329.688" y="4.82129" width="0.636936" height="0.636936" fill="black"/>
<rect x="329.688" y="4.18457" width="0.636936" height="0.636936" fill="black"/>
<rect x="329.688" y="3.54736" width="0.636936" height="0.636936" fill="black"/>
<rect x="329.688" y="2.91113" width="0.636936" height="0.636936" fill="black"/>
<rect x="329.688" y="2.27393" width="0.636936" height="0.636936" fill="black"/>
<rect x="329.688" y="1.63721" width="0.636936" height="0.636936" fill="black"/>
<rect x="327.013" y="9.91699" width="0.636936" height="0.636936" fill="black"/>
<rect x="327.013" y="9.27979" width="0.636936" height="0.636936" fill="white"/>
<rect x="327.013" y="8.64355" width="0.636936" height="0.636936" fill="white"/>
<rect x="327.013" y="8.00635" width="0.636936" height="0.636936" fill="white"/>
<rect x="327.013" y="7.36914" width="0.636936" height="0.636936" fill="white"/>
<rect x="327.013" y="6.73242" width="0.636936" height="0.636936" fill="white"/>
<rect x="327.013" y="6.09521" width="0.636936" height="0.636936" fill="black"/>
<rect x="327.013" y="5.4585" width="0.636936" height="0.636936" fill="white"/>
<rect x="327.013" y="4.82129" width="0.636936" height="0.636936" fill="white"/>
<rect x="327.013" y="4.18457" width="0.636936" height="0.636936" fill="black"/>
<rect x="327.013" y="3.54736" width="0.636936" height="0.636936" fill="black"/>
<rect x="327.013" y="2.91113" width="0.636936" height="0.636936" fill="black"/>
<rect x="327.013" y="2.27393" width="0.636936" height="0.636936" fill="black"/>
<rect x="327.013" y="1.63721" width="0.636936" height="0.636936" fill="black"/>
<rect x="327.013" y="1" width="0.636936" height="0.636936" fill="black"/>
<rect x="332.363" y="6.73242" width="0.636936" height="0.636936" fill="black"/>
<rect x="332.363" y="6.09521" width="0.636936" height="0.636936" fill="black"/>
<rect x="332.363" y="5.4585" width="0.636936" height="0.636936" fill="black"/>
<rect x="332.363" y="4.82129" width="0.636936" height="0.636936" fill="black"/>
<rect x="332.363" y="4.18457" width="0.636936" height="0.636936" fill="black"/>
<rect x="325.006" y="9.27979" width="0.636936" height="0.636936" fill="black"/>
<rect x="325.006" y="8.64355" width="0.636936" height="0.636936" fill="white"/>
<rect x="325.006" y="8.00635" width="0.636936" height="0.636936" fill="white"/>
<rect x="325.006" y="7.36914" width="0.636936" height="0.636936" fill="white"/>
<rect x="325.006" y="6.73242" width="0.636936" height="0.636936" fill="white"/>
<rect x="325.006" y="6.09521" width="0.636936" height="0.636936" fill="white"/>
<rect x="325.006" y="5.4585" width="0.636936" height="0.636936" fill="black"/>
<rect x="325.006" y="4.82129" width="0.636936" height="0.636936" fill="black"/>
<rect x="325.006" y="4.18457" width="0.636936" height="0.636936" fill="black"/>
<rect x="325.006" y="3.54736" width="0.636936" height="0.636936" fill="black"/>
<rect x="325.006" y="2.91113" width="0.636936" height="0.636936" fill="black"/>
<rect x="325.006" y="2.27393" width="0.636936" height="0.636936" fill="black"/>
<rect x="325.006" y="1.63721" width="0.636936" height="0.636936" fill="black"/>
<rect x="330.356" y="9.27979" width="0.636936" height="0.636936" fill="black"/>
<rect x="330.356" y="8.64355" width="0.636936" height="0.636936" fill="white"/>
<rect x="330.356" y="8.00635" width="0.636936" height="0.636936" fill="white"/>
<rect x="330.356" y="7.36914" width="0.636936" height="0.636936" fill="white"/>
<rect x="330.356" y="6.73242" width="0.636936" height="0.636936" fill="white"/>
<rect x="330.356" y="6.09521" width="0.636936" height="0.636936" fill="white"/>
<rect x="330.356" y="5.4585" width="0.636936" height="0.636936" fill="black"/>
<rect x="330.356" y="4.82129" width="0.636936" height="0.636936" fill="black"/>
<rect x="330.356" y="4.18457" width="0.636936" height="0.636936" fill="black"/>
<rect x="330.356" y="3.54736" width="0.636936" height="0.636936" fill="black"/>
<rect x="330.356" y="2.91113" width="0.636936" height="0.636936" fill="black"/>
<rect x="330.356" y="2.27393" width="0.636936" height="0.636936" fill="black"/>
<rect x="330.356" y="1.63721" width="0.636936" height="0.636936" fill="black"/>
<rect x="327.681" y="9.91699" width="0.636936" height="0.636936" fill="black"/>
<rect x="327.681" y="9.27979" width="0.636936" height="0.636936" fill="white"/>
<rect x="327.681" y="8.64355" width="0.636936" height="0.636936" fill="white"/>
<rect x="327.681" y="8.00635" width="0.636936" height="0.636936" fill="white"/>
<rect x="327.681" y="7.36914" width="0.636936" height="0.636936" fill="white"/>
<rect x="327.681" y="6.73242" width="0.636936" height="0.636936" fill="white"/>
<rect x="327.681" y="6.09521" width="0.636936" height="0.636936" fill="black"/>
<rect x="327.681" y="5.4585" width="0.636936" height="0.636936" fill="white"/>
<rect x="327.681" y="4.82129" width="0.636936" height="0.636936" fill="white"/>
<rect x="327.681" y="4.18457" width="0.636936" height="0.636936" fill="black"/>
<rect x="327.681" y="3.54736" width="0.636936" height="0.636936" fill="black"/>
<rect x="327.681" y="2.91113" width="0.636936" height="0.636936" fill="black"/>
<rect x="327.681" y="2.27393" width="0.636936" height="0.636936" fill="black"/>
<rect x="327.681" y="1.63721" width="0.636936" height="0.636936" fill="black"/>
<rect x="327.681" y="1" width="0.636936" height="0.636936" fill="black"/>
<rect y="71.7324" width="0.636936" height="0.636936" fill="black"/>
<rect y="71.0952" width="0.636936" height="0.636936" fill="black"/>
<rect y="70.4585" width="0.636936" height="0.636936" fill="black"/>
<rect y="69.8213" width="0.636936" height="0.636936" fill="black"/>
<rect y="69.1846" width="0.636936" height="0.636936" fill="black"/>
<rect x="5.35034" y="74.917" width="0.636936" height="0.636936" fill="black"/>
<rect x="5.35034" y="74.2798" width="0.636936" height="0.636936" fill="white"/>
<rect x="5.35034" y="73.6436" width="0.636936" height="0.636936" fill="white"/>
<rect x="5.35034" y="73.0063" width="0.636936" height="0.636936" fill="white"/>
<rect x="5.35034" y="72.3691" width="0.636936" height="0.636936" fill="white"/>
<rect x="5.35034" y="71.7324" width="0.636936" height="0.636936" fill="white"/>
<rect x="5.35034" y="71.0952" width="0.636936" height="0.636936" fill="black"/>
<rect x="5.35034" y="70.4585" width="0.636936" height="0.636936" fill="white"/>
<rect x="5.35034" y="69.8213" width="0.636936" height="0.636936" fill="white"/>
<rect x="5.35034" y="69.1846" width="0.636936" height="0.636936" fill="black"/>
<rect x="5.35034" y="68.5474" width="0.636936" height="0.636936" fill="black"/>
<rect x="5.35034" y="67.9111" width="0.636936" height="0.636936" fill="black"/>
<rect x="5.35034" y="67.2739" width="0.636936" height="0.636936" fill="black"/>
<rect x="5.35034" y="66.6372" width="0.636936" height="0.636936" fill="black"/>
<rect x="5.35034" y="66" width="0.636936" height="0.636936" fill="black"/>
<rect x="2.67505" y="74.2798" width="0.636936" height="0.636936" fill="black"/>
<rect x="2.67505" y="73.6436" width="0.636936" height="0.636936" fill="white"/>
<rect x="2.67505" y="73.0063" width="0.636936" height="0.636936" fill="white"/>
<rect x="2.67505" y="72.3691" width="0.636936" height="0.636936" fill="white"/>
<rect x="2.67505" y="71.7324" width="0.636936" height="0.636936" fill="white"/>
<rect x="2.67505" y="71.0952" width="0.636936" height="0.636936" fill="white"/>
<rect x="2.67505" y="70.4585" width="0.636936" height="0.636936" fill="black"/>
<rect x="2.67505" y="69.8213" width="0.636936" height="0.636936" fill="black"/>
<rect x="2.67505" y="69.1846" width="0.636936" height="0.636936" fill="black"/>
<rect x="2.67505" y="68.5474" width="0.636936" height="0.636936" fill="black"/>
<rect x="2.67505" y="67.9111" width="0.636936" height="0.636936" fill="black"/>
<rect x="2.67505" y="67.2739" width="0.636936" height="0.636936" fill="black"/>
<rect x="2.67505" y="66.6372" width="0.636936" height="0.636936" fill="black"/>
<rect x="8.02539" y="73.6436" width="0.636936" height="0.636936" fill="black"/>
<rect x="8.02539" y="73.0063" width="0.636936" height="0.636936" fill="white"/>
<rect x="8.02539" y="72.3691" width="0.636936" height="0.636936" fill="white"/>
<rect x="8.02539" y="71.7324" width="0.636936" height="0.636936" fill="white"/>
<rect x="8.02539" y="71.0952" width="0.636936" height="0.636936" fill="white"/>
<rect x="8.02539" y="70.4585" width="0.636936" height="0.636936" fill="black"/>
<rect x="8.02539" y="69.8213" width="0.636936" height="0.636936" fill="black"/>
<rect x="8.02539" y="69.1846" width="0.636936" height="0.636936" fill="black"/>
<rect x="8.02539" y="68.5474" width="0.636936" height="0.636936" fill="black"/>
<rect x="8.02539" y="67.9111" width="0.636936" height="0.636936" fill="black"/>
<rect x="8.02539" y="67.2739" width="0.636936" height="0.636936" fill="black"/>
<rect x="0.668945" y="73.0063" width="0.636936" height="0.636936" fill="black"/>
<rect x="0.668945" y="72.3691" width="0.636936" height="0.636936" fill="black"/>
<rect x="0.668945" y="71.7324" width="0.636936" height="0.636936" fill="white"/>
<rect x="0.668945" y="71.0952" width="0.636936" height="0.636936" fill="white"/>
<rect x="0.668945" y="70.4585" width="0.636936" height="0.636936" fill="black"/>
<rect x="0.668945" y="69.8213" width="0.636936" height="0.636936" fill="black"/>
<rect x="0.668945" y="69.1846" width="0.636936" height="0.636936" fill="black"/>
<rect x="0.668945" y="68.5474" width="0.636936" height="0.636936" fill="black"/>
<rect x="0.668945" y="67.9111" width="0.636936" height="0.636936" fill="black"/>
<rect x="6.01904" y="74.917" width="0.636936" height="0.636936" fill="black"/>
<rect x="6.01904" y="74.2798" width="0.636936" height="0.636936" fill="white"/>
<rect x="6.01904" y="73.6436" width="0.636936" height="0.636936" fill="white"/>
<rect x="6.01904" y="73.0063" width="0.636936" height="0.636936" fill="white"/>
<rect x="6.01904" y="72.3691" width="0.636936" height="0.636936" fill="white"/>
<rect x="6.01904" y="71.7324" width="0.636936" height="0.636936" fill="white"/>
<rect x="6.01904" y="71.0952" width="0.636936" height="0.636936" fill="white"/>
<rect x="6.01904" y="70.4585" width="0.636936" height="0.636936" fill="black"/>
<rect x="6.01904" y="69.8213" width="0.636936" height="0.636936" fill="black"/>
<rect x="6.01904" y="69.1846" width="0.636936" height="0.636936" fill="black"/>
<rect x="6.01904" y="68.5474" width="0.636936" height="0.636936" fill="black"/>
<rect x="6.01904" y="67.9111" width="0.636936" height="0.636936" fill="black"/>
<rect x="6.01904" y="67.2739" width="0.636936" height="0.636936" fill="black"/>
<rect x="6.01904" y="66.6372" width="0.636936" height="0.636936" fill="black"/>
<rect x="6.01904" y="66" width="0.636936" height="0.636936" fill="black"/>
<rect x="3.34399" y="74.917" width="0.636936" height="0.636936" fill="black"/>
<rect x="3.34399" y="74.2798" width="0.636936" height="0.636936" fill="white"/>
<rect x="3.34399" y="73.6436" width="0.636936" height="0.636936" fill="white"/>
<rect x="3.34399" y="73.0063" width="0.636936" height="0.636936" fill="white"/>
<rect x="3.34399" y="72.3691" width="0.636936" height="0.636936" fill="white"/>
<rect x="3.34399" y="71.7324" width="0.636936" height="0.636936" fill="white"/>
<rect x="3.34399" y="71.0952" width="0.636936" height="0.636936" fill="white"/>
<rect x="3.34399" y="70.4585" width="0.636936" height="0.636936" fill="black"/>
<rect x="3.34399" y="69.8213" width="0.636936" height="0.636936" fill="black"/>
<rect x="3.34399" y="69.1846" width="0.636936" height="0.636936" fill="black"/>
<rect x="3.34399" y="68.5474" width="0.636936" height="0.636936" fill="black"/>
<rect x="3.34399" y="67.9111" width="0.636936" height="0.636936" fill="black"/>
<rect x="3.34399" y="67.2739" width="0.636936" height="0.636936" fill="black"/>
<rect x="3.34399" y="66.6372" width="0.636936" height="0.636936" fill="black"/>
<rect x="3.34399" y="66" width="0.636936" height="0.636936" fill="black"/>
<rect x="8.69409" y="73.0063" width="0.636936" height="0.636936" fill="black"/>
<rect x="8.69409" y="72.3691" width="0.636936" height="0.636936" fill="black"/>
<rect x="8.69409" y="71.7324" width="0.636936" height="0.636936" fill="white"/>
<rect x="8.69409" y="71.0952" width="0.636936" height="0.636936" fill="white"/>
<rect x="8.69409" y="70.4585" width="0.636936" height="0.636936" fill="black"/>
<rect x="8.69409" y="69.8213" width="0.636936" height="0.636936" fill="black"/>
<rect x="8.69409" y="69.1846" width="0.636936" height="0.636936" fill="black"/>
<rect x="8.69409" y="68.5474" width="0.636936" height="0.636936" fill="black"/>
<rect x="8.69409" y="67.9111" width="0.636936" height="0.636936" fill="black"/>
<rect x="1.33765" y="73.6436" width="0.636936" height="0.636936" fill="black"/>
<rect x="1.33765" y="73.0063" width="0.636936" height="0.636936" fill="white"/>
<rect x="1.33765" y="72.3691" width="0.636936" height="0.636936" fill="white"/>
<rect x="1.33765" y="71.7324" width="0.636936" height="0.636936" fill="white"/>
<rect x="1.33765" y="71.0952" width="0.636936" height="0.636936" fill="white"/>
<rect x="1.33765" y="70.4585" width="0.636936" height="0.636936" fill="black"/>
<rect x="1.33765" y="69.8213" width="0.636936" height="0.636936" fill="black"/>
<rect x="1.33765" y="69.1846" width="0.636936" height="0.636936" fill="black"/>
<rect x="1.33765" y="68.5474" width="0.636936" height="0.636936" fill="black"/>
<rect x="1.33765" y="67.9111" width="0.636936" height="0.636936" fill="black"/>
<rect x="1.33765" y="67.2739" width="0.636936" height="0.636936" fill="black"/>
<rect x="6.68799" y="74.2798" width="0.636936" height="0.636936" fill="black"/>
<rect x="6.68799" y="73.6436" width="0.636936" height="0.636936" fill="white"/>
<rect x="6.68799" y="73.0063" width="0.636936" height="0.636936" fill="white"/>
<rect x="6.68799" y="72.3691" width="0.636936" height="0.636936" fill="white"/>
<rect x="6.68799" y="71.7324" width="0.636936" height="0.636936" fill="white"/>
<rect x="6.68799" y="71.0952" width="0.636936" height="0.636936" fill="white"/>
<rect x="6.68799" y="70.4585" width="0.636936" height="0.636936" fill="black"/>
<rect x="6.68799" y="69.8213" width="0.636936" height="0.636936" fill="black"/>
<rect x="6.68799" y="69.1846" width="0.636936" height="0.636936" fill="black"/>
<rect x="6.68799" y="68.5474" width="0.636936" height="0.636936" fill="black"/>
<rect x="6.68799" y="67.9111" width="0.636936" height="0.636936" fill="black"/>
<rect x="6.68799" y="67.2739" width="0.636936" height="0.636936" fill="black"/>
<rect x="6.68799" y="66.6372" width="0.636936" height="0.636936" fill="black"/>
<rect x="4.0127" y="74.917" width="0.636936" height="0.636936" fill="black"/>
<rect x="4.0127" y="74.2798" width="0.636936" height="0.636936" fill="white"/>
<rect x="4.0127" y="73.6436" width="0.636936" height="0.636936" fill="white"/>
<rect x="4.0127" y="73.0063" width="0.636936" height="0.636936" fill="white"/>
<rect x="4.0127" y="72.3691" width="0.636936" height="0.636936" fill="white"/>
<rect x="4.0127" y="71.7324" width="0.636936" height="0.636936" fill="white"/>
<rect x="4.0127" y="71.0952" width="0.636936" height="0.636936" fill="black"/>
<rect x="4.0127" y="70.4585" width="0.636936" height="0.636936" fill="white"/>
<rect x="4.0127" y="69.8213" width="0.636936" height="0.636936" fill="white"/>
<rect x="4.0127" y="69.1846" width="0.636936" height="0.636936" fill="black"/>
<rect x="4.0127" y="68.5474" width="0.636936" height="0.636936" fill="black"/>
<rect x="4.0127" y="67.9111" width="0.636936" height="0.636936" fill="black"/>
<rect x="4.0127" y="67.2739" width="0.636936" height="0.636936" fill="black"/>
<rect x="4.0127" y="66.6372" width="0.636936" height="0.636936" fill="black"/>
<rect x="4.0127" y="66" width="0.636936" height="0.636936" fill="black"/>
<rect x="9.36304" y="71.7324" width="0.636936" height="0.636936" fill="black"/>
<rect x="9.36304" y="71.0952" width="0.636936" height="0.636936" fill="black"/>
<rect x="9.36304" y="70.4585" width="0.636936" height="0.636936" fill="black"/>
<rect x="9.36304" y="69.8213" width="0.636936" height="0.636936" fill="black"/>
<rect x="9.36304" y="69.1846" width="0.636936" height="0.636936" fill="black"/>
<rect x="2.0061" y="74.2798" width="0.636936" height="0.636936" fill="black"/>
<rect x="2.0061" y="73.6436" width="0.636936" height="0.636936" fill="white"/>
<rect x="2.0061" y="73.0063" width="0.636936" height="0.636936" fill="white"/>
<rect x="2.0061" y="72.3691" width="0.636936" height="0.636936" fill="white"/>
<rect x="2.0061" y="71.7324" width="0.636936" height="0.636936" fill="white"/>
<rect x="2.0061" y="71.0952" width="0.636936" height="0.636936" fill="white"/>
<rect x="2.0061" y="70.4585" width="0.636936" height="0.636936" fill="black"/>
<rect x="2.0061" y="69.8213" width="0.636936" height="0.636936" fill="black"/>
<rect x="2.0061" y="69.1846" width="0.636936" height="0.636936" fill="black"/>
<rect x="2.0061" y="68.5474" width="0.636936" height="0.636936" fill="black"/>
<rect x="2.0061" y="67.9111" width="0.636936" height="0.636936" fill="black"/>
<rect x="2.0061" y="67.2739" width="0.636936" height="0.636936" fill="black"/>
<rect x="2.0061" y="66.6372" width="0.636936" height="0.636936" fill="black"/>
<rect x="7.35645" y="74.2798" width="0.636936" height="0.636936" fill="black"/>
<rect x="7.35645" y="73.6436" width="0.636936" height="0.636936" fill="white"/>
<rect x="7.35645" y="73.0063" width="0.636936" height="0.636936" fill="white"/>
<rect x="7.35645" y="72.3691" width="0.636936" height="0.636936" fill="white"/>
<rect x="7.35645" y="71.7324" width="0.636936" height="0.636936" fill="white"/>
<rect x="7.35645" y="71.0952" width="0.636936" height="0.636936" fill="white"/>
<rect x="7.35645" y="70.4585" width="0.636936" height="0.636936" fill="black"/>
<rect x="7.35645" y="69.8213" width="0.636936" height="0.636936" fill="black"/>
<rect x="7.35645" y="69.1846" width="0.636936" height="0.636936" fill="black"/>
<rect x="7.35645" y="68.5474" width="0.636936" height="0.636936" fill="black"/>
<rect x="7.35645" y="67.9111" width="0.636936" height="0.636936" fill="black"/>
<rect x="7.35645" y="67.2739" width="0.636936" height="0.636936" fill="black"/>
<rect x="7.35645" y="66.6372" width="0.636936" height="0.636936" fill="black"/>
<rect x="4.6814" y="74.917" width="0.636936" height="0.636936" fill="black"/>
<rect x="4.6814" y="74.2798" width="0.636936" height="0.636936" fill="white"/>
<rect x="4.6814" y="73.6436" width="0.636936" height="0.636936" fill="white"/>
<rect x="4.6814" y="73.0063" width="0.636936" height="0.636936" fill="white"/>
<rect x="4.6814" y="72.3691" width="0.636936" height="0.636936" fill="white"/>
<rect x="4.6814" y="71.7324" width="0.636936" height="0.636936" fill="white"/>
<rect x="4.6814" y="71.0952" width="0.636936" height="0.636936" fill="black"/>
<rect x="4.6814" y="70.4585" width="0.636936" height="0.636936" fill="white"/>
<rect x="4.6814" y="69.8213" width="0.636936" height="0.636936" fill="white"/>
<rect x="4.6814" y="69.1846" width="0.636936" height="0.636936" fill="black"/>
<rect x="4.6814" y="68.5474" width="0.636936" height="0.636936" fill="black"/>
<rect x="4.6814" y="67.9111" width="0.636936" height="0.636936" fill="black"/>
<rect x="4.6814" y="67.2739" width="0.636936" height="0.636936" fill="black"/>
<rect x="4.6814" y="66.6372" width="0.636936" height="0.636936" fill="black"/>
<rect x="4.6814" y="66" width="0.636936" height="0.636936" fill="black"/>
<rect x="323" y="71.7324" width="0.636936" height="0.636936" fill="black"/>
<rect x="323" y="71.0952" width="0.636936" height="0.636936" fill="black"/>
<rect x="323" y="70.4585" width="0.636936" height="0.636936" fill="black"/>
<rect x="323" y="69.8213" width="0.636936" height="0.636936" fill="black"/>
<rect x="323" y="69.1846" width="0.636936" height="0.636936" fill="black"/>
<rect x="328.35" y="74.917" width="0.636936" height="0.636936" fill="black"/>
<rect x="328.35" y="74.2798" width="0.636936" height="0.636936" fill="white"/>
<rect x="328.35" y="73.6436" width="0.636936" height="0.636936" fill="white"/>
<rect x="328.35" y="73.0063" width="0.636936" height="0.636936" fill="white"/>
<rect x="328.35" y="72.3691" width="0.636936" height="0.636936" fill="white"/>
<rect x="328.35" y="71.7324" width="0.636936" height="0.636936" fill="white"/>
<rect x="328.35" y="71.0952" width="0.636936" height="0.636936" fill="black"/>
<rect x="328.35" y="70.4585" width="0.636936" height="0.636936" fill="white"/>
<rect x="328.35" y="69.8213" width="0.636936" height="0.636936" fill="white"/>
<rect x="328.35" y="69.1846" width="0.636936" height="0.636936" fill="black"/>
<rect x="328.35" y="68.5474" width="0.636936" height="0.636936" fill="black"/>
<rect x="328.35" y="67.9111" width="0.636936" height="0.636936" fill="black"/>
<rect x="328.35" y="67.2739" width="0.636936" height="0.636936" fill="black"/>
<rect x="328.35" y="66.6372" width="0.636936" height="0.636936" fill="black"/>
<rect x="328.35" y="66" width="0.636936" height="0.636936" fill="black"/>
<rect x="325.675" y="74.2798" width="0.636936" height="0.636936" fill="black"/>
<rect x="325.675" y="73.6436" width="0.636936" height="0.636936" fill="white"/>
<rect x="325.675" y="73.0063" width="0.636936" height="0.636936" fill="white"/>
<rect x="325.675" y="72.3691" width="0.636936" height="0.636936" fill="white"/>
<rect x="325.675" y="71.7324" width="0.636936" height="0.636936" fill="white"/>
<rect x="325.675" y="71.0952" width="0.636936" height="0.636936" fill="white"/>
<rect x="325.675" y="70.4585" width="0.636936" height="0.636936" fill="black"/>
<rect x="325.675" y="69.8213" width="0.636936" height="0.636936" fill="black"/>
<rect x="325.675" y="69.1846" width="0.636936" height="0.636936" fill="black"/>
<rect x="325.675" y="68.5474" width="0.636936" height="0.636936" fill="black"/>
<rect x="325.675" y="67.9111" width="0.636936" height="0.636936" fill="black"/>
<rect x="325.675" y="67.2739" width="0.636936" height="0.636936" fill="black"/>
<rect x="325.675" y="66.6372" width="0.636936" height="0.636936" fill="black"/>
<rect x="331.025" y="73.6436" width="0.636936" height="0.636936" fill="black"/>
<rect x="331.025" y="73.0063" width="0.636936" height="0.636936" fill="white"/>
<rect x="331.025" y="72.3691" width="0.636936" height="0.636936" fill="white"/>
<rect x="331.025" y="71.7324" width="0.636936" height="0.636936" fill="white"/>
<rect x="331.025" y="71.0952" width="0.636936" height="0.636936" fill="white"/>
<rect x="331.025" y="70.4585" width="0.636936" height="0.636936" fill="black"/>
<rect x="331.025" y="69.8213" width="0.636936" height="0.636936" fill="black"/>
<rect x="331.025" y="69.1846" width="0.636936" height="0.636936" fill="black"/>
<rect x="331.025" y="68.5474" width="0.636936" height="0.636936" fill="black"/>
<rect x="331.025" y="67.9111" width="0.636936" height="0.636936" fill="black"/>
<rect x="331.025" y="67.2739" width="0.636936" height="0.636936" fill="black"/>
<rect x="323.669" y="73.0063" width="0.636936" height="0.636936" fill="black"/>
<rect x="323.669" y="72.3691" width="0.636936" height="0.636936" fill="black"/>
<rect x="323.669" y="71.7324" width="0.636936" height="0.636936" fill="white"/>
<rect x="323.669" y="71.0952" width="0.636936" height="0.636936" fill="white"/>
<rect x="323.669" y="70.4585" width="0.636936" height="0.636936" fill="black"/>
<rect x="323.669" y="69.8213" width="0.636936" height="0.636936" fill="black"/>
<rect x="323.669" y="69.1846" width="0.636936" height="0.636936" fill="black"/>
<rect x="323.669" y="68.5474" width="0.636936" height="0.636936" fill="black"/>
<rect x="323.669" y="67.9111" width="0.636936" height="0.636936" fill="black"/>
<rect x="329.019" y="74.917" width="0.636936" height="0.636936" fill="black"/>
<rect x="329.019" y="74.2798" width="0.636936" height="0.636936" fill="white"/>
<rect x="329.019" y="73.6436" width="0.636936" height="0.636936" fill="white"/>
<rect x="329.019" y="73.0063" width="0.636936" height="0.636936" fill="white"/>
<rect x="329.019" y="72.3691" width="0.636936" height="0.636936" fill="white"/>
<rect x="329.019" y="71.7324" width="0.636936" height="0.636936" fill="white"/>
<rect x="329.019" y="71.0952" width="0.636936" height="0.636936" fill="white"/>
<rect x="329.019" y="70.4585" width="0.636936" height="0.636936" fill="black"/>
<rect x="329.019" y="69.8213" width="0.636936" height="0.636936" fill="black"/>
<rect x="329.019" y="69.1846" width="0.636936" height="0.636936" fill="black"/>
<rect x="329.019" y="68.5474" width="0.636936" height="0.636936" fill="black"/>
<rect x="329.019" y="67.9111" width="0.636936" height="0.636936" fill="black"/>
<rect x="329.019" y="67.2739" width="0.636936" height="0.636936" fill="black"/>
<rect x="329.019" y="66.6372" width="0.636936" height="0.636936" fill="black"/>
<rect x="329.019" y="66" width="0.636936" height="0.636936" fill="black"/>
<rect x="326.344" y="74.917" width="0.636936" height="0.636936" fill="black"/>
<rect x="326.344" y="74.2798" width="0.636936" height="0.636936" fill="white"/>
<rect x="326.344" y="73.6436" width="0.636936" height="0.636936" fill="white"/>
<rect x="326.344" y="73.0063" width="0.636936" height="0.636936" fill="white"/>
<rect x="326.344" y="72.3691" width="0.636936" height="0.636936" fill="white"/>
<rect x="326.344" y="71.7324" width="0.636936" height="0.636936" fill="white"/>
<rect x="326.344" y="71.0952" width="0.636936" height="0.636936" fill="white"/>
<rect x="326.344" y="70.4585" width="0.636936" height="0.636936" fill="black"/>
<rect x="326.344" y="69.8213" width="0.636936" height="0.636936" fill="black"/>
<rect x="326.344" y="69.1846" width="0.636936" height="0.636936" fill="black"/>
<rect x="326.344" y="68.5474" width="0.636936" height="0.636936" fill="black"/>
<rect x="326.344" y="67.9111" width="0.636936" height="0.636936" fill="black"/>
<rect x="326.344" y="67.2739" width="0.636936" height="0.636936" fill="black"/>
<rect x="326.344" y="66.6372" width="0.636936" height="0.636936" fill="black"/>
<rect x="326.344" y="66" width="0.636936" height="0.636936" fill="black"/>
<rect x="331.694" y="73.0063" width="0.636936" height="0.636936" fill="black"/>
<rect x="331.694" y="72.3691" width="0.636936" height="0.636936" fill="black"/>
<rect x="331.694" y="71.7324" width="0.636936" height="0.636936" fill="white"/>
<rect x="331.694" y="71.0952" width="0.636936" height="0.636936" fill="white"/>
<rect x="331.694" y="70.4585" width="0.636936" height="0.636936" fill="black"/>
<rect x="331.694" y="69.8213" width="0.636936" height="0.636936" fill="black"/>
<rect x="331.694" y="69.1846" width="0.636936" height="0.636936" fill="black"/>
<rect x="331.694" y="68.5474" width="0.636936" height="0.636936" fill="black"/>
<rect x="331.694" y="67.9111" width="0.636936" height="0.636936" fill="black"/>
<rect x="324.338" y="73.6436" width="0.636936" height="0.636936" fill="black"/>
<rect x="324.338" y="73.0063" width="0.636936" height="0.636936" fill="white"/>
<rect x="324.338" y="72.3691" width="0.636936" height="0.636936" fill="white"/>
<rect x="324.338" y="71.7324" width="0.636936" height="0.636936" fill="white"/>
<rect x="324.338" y="71.0952" width="0.636936" height="0.636936" fill="white"/>
<rect x="324.338" y="70.4585" width="0.636936" height="0.636936" fill="black"/>
<rect x="324.338" y="69.8213" width="0.636936" height="0.636936" fill="black"/>
<rect x="324.338" y="69.1846" width="0.636936" height="0.636936" fill="black"/>
<rect x="324.338" y="68.5474" width="0.636936" height="0.636936" fill="black"/>
<rect x="324.338" y="67.9111" width="0.636936" height="0.636936" fill="black"/>
<rect x="324.338" y="67.2739" width="0.636936" height="0.636936" fill="black"/>
<rect x="329.688" y="74.2798" width="0.636936" height="0.636936" fill="black"/>
<rect x="329.688" y="73.6436" width="0.636936" height="0.636936" fill="white"/>
<rect x="329.688" y="73.0063" width="0.636936" height="0.636936" fill="white"/>
<rect x="329.688" y="72.3691" width="0.636936" height="0.636936" fill="white"/>
<rect x="329.688" y="71.7324" width="0.636936" height="0.636936" fill="white"/>
<rect x="329.688" y="71.0952" width="0.636936" height="0.636936" fill="white"/>
<rect x="329.688" y="70.4585" width="0.636936" height="0.636936" fill="black"/>
<rect x="329.688" y="69.8213" width="0.636936" height="0.636936" fill="black"/>
<rect x="329.688" y="69.1846" width="0.636936" height="0.636936" fill="black"/>
<rect x="329.688" y="68.5474" width="0.636936" height="0.636936" fill="black"/>
<rect x="329.688" y="67.9111" width="0.636936" height="0.636936" fill="black"/>
<rect x="329.688" y="67.2739" width="0.636936" height="0.636936" fill="black"/>
<rect x="329.688" y="66.6372" width="0.636936" height="0.636936" fill="black"/>
<rect x="327.013" y="74.917" width="0.636936" height="0.636936" fill="black"/>
<rect x="327.013" y="74.2798" width="0.636936" height="0.636936" fill="white"/>
<rect x="327.013" y="73.6436" width="0.636936" height="0.636936" fill="white"/>
<rect x="327.013" y="73.0063" width="0.636936" height="0.636936" fill="white"/>
<rect x="327.013" y="72.3691" width="0.636936" height="0.636936" fill="white"/>
<rect x="327.013" y="71.7324" width="0.636936" height="0.636936" fill="white"/>
<rect x="327.013" y="71.0952" width="0.636936" height="0.636936" fill="black"/>
<rect x="327.013" y="70.4585" width="0.636936" height="0.636936" fill="white"/>
<rect x="327.013" y="69.8213" width="0.636936" height="0.636936" fill="white"/>
<rect x="327.013" y="69.1846" width="0.636936" height="0.636936" fill="black"/>
<rect x="327.013" y="68.5474" width="0.636936" height="0.636936" fill="black"/>
<rect x="327.013" y="67.9111" width="0.636936" height="0.636936" fill="black"/>
<rect x="327.013" y="67.2739" width="0.636936" height="0.636936" fill="black"/>
<rect x="327.013" y="66.6372" width="0.636936" height="0.636936" fill="black"/>
<rect x="327.013" y="66" width="0.636936" height="0.636936" fill="black"/>
<rect x="332.363" y="71.7324" width="0.636936" height="0.636936" fill="black"/>
<rect x="332.363" y="71.0952" width="0.636936" height="0.636936" fill="black"/>
<rect x="332.363" y="70.4585" width="0.636936" height="0.636936" fill="black"/>
<rect x="332.363" y="69.8213" width="0.636936" height="0.636936" fill="black"/>
<rect x="332.363" y="69.1846" width="0.636936" height="0.636936" fill="black"/>
<rect x="325.006" y="74.2798" width="0.636936" height="0.636936" fill="black"/>
<rect x="325.006" y="73.6436" width="0.636936" height="0.636936" fill="white"/>
<rect x="325.006" y="73.0063" width="0.636936" height="0.636936" fill="white"/>
<rect x="325.006" y="72.3691" width="0.636936" height="0.636936" fill="white"/>
<rect x="325.006" y="71.7324" width="0.636936" height="0.636936" fill="white"/>
<rect x="325.006" y="71.0952" width="0.636936" height="0.636936" fill="white"/>
<rect x="325.006" y="70.4585" width="0.636936" height="0.636936" fill="black"/>
<rect x="325.006" y="69.8213" width="0.636936" height="0.636936" fill="black"/>
<rect x="325.006" y="69.1846" width="0.636936" height="0.636936" fill="black"/>
<rect x="325.006" y="68.5474" width="0.636936" height="0.636936" fill="black"/>
<rect x="325.006" y="67.9111" width="0.636936" height="0.636936" fill="black"/>
<rect x="325.006" y="67.2739" width="0.636936" height="0.636936" fill="black"/>
<rect x="325.006" y="66.6372" width="0.636936" height="0.636936" fill="black"/>
<rect x="330.356" y="74.2798" width="0.636936" height="0.636936" fill="black"/>
<rect x="330.356" y="73.6436" width="0.636936" height="0.636936" fill="white"/>
<rect x="330.356" y="73.0063" width="0.636936" height="0.636936" fill="white"/>
<rect x="330.356" y="72.3691" width="0.636936" height="0.636936" fill="white"/>
<rect x="330.356" y="71.7324" width="0.636936" height="0.636936" fill="white"/>
<rect x="330.356" y="71.0952" width="0.636936" height="0.636936" fill="white"/>
<rect x="330.356" y="70.4585" width="0.636936" height="0.636936" fill="black"/>
<rect x="330.356" y="69.8213" width="0.636936" height="0.636936" fill="black"/>
<rect x="330.356" y="69.1846" width="0.636936" height="0.636936" fill="black"/>
<rect x="330.356" y="68.5474" width="0.636936" height="0.636936" fill="black"/>
<rect x="330.356" y="67.9111" width="0.636936" height="0.636936" fill="black"/>
<rect x="330.356" y="67.2739" width="0.636936" height="0.636936" fill="black"/>
<rect x="330.356" y="66.6372" width="0.636936" height="0.636936" fill="black"/>
<rect x="327.681" y="74.917" width="0.636936" height="0.636936" fill="black"/>
<rect x="327.681" y="74.2798" width="0.636936" height="0.636936" fill="white"/>
<rect x="327.681" y="73.6436" width="0.636936" height="0.636936" fill="white"/>
<rect x="327.681" y="73.0063" width="0.636936" height="0.636936" fill="white"/>
<rect x="327.681" y="72.3691" width="0.636936" height="0.636936" fill="white"/>
<rect x="327.681" y="71.7324" width="0.636936" height="0.636936" fill="white"/>
<rect x="327.681" y="71.0952" width="0.636936" height="0.636936" fill="black"/>
<rect x="327.681" y="70.4585" width="0.636936" height="0.636936" fill="white"/>
<rect x="327.681" y="69.8213" width="0.636936" height="0.636936" fill="white"/>
<rect x="327.681" y="69.1846" width="0.636936" height="0.636936" fill="black"/>
<rect x="327.681" y="68.5474" width="0.636936" height="0.636936" fill="black"/>
<rect x="327.681" y="67.9111" width="0.636936" height="0.636936" fill="black"/>
<rect x="327.681" y="67.2739" width="0.636936" height="0.636936" fill="black"/>
<rect x="327.681" y="66.6372" width="0.636936" height="0.636936" fill="black"/>
<rect x="327.681" y="66" width="0.636936" height="0.636936" fill="black"/>
<rect x="12.5" y="6.5" width="308" height="2" fill="black" stroke="black"/>
<rect x="12" y="70" width="309" height="3" fill="black"/>
<rect x="12" y="3" width="309" height="1" fill="black"/>
<rect x="12" y="67" width="309" height="1" fill="black"/>
<rect x="324.75" y="63.75" width="0.5" height="51.5" transform="rotate(180 324.75 63.75)" fill="black" stroke="black" stroke-width="0.5"/>
<rect x="0.25" y="-0.25" width="0.5" height="51.5" transform="matrix(1 0 0 -1 8 63.5)" fill="black" stroke="black" stroke-width="0.5"/>
<rect x="329.25" y="63.25" width="1.5" height="50.5" transform="rotate(180 329.25 63.25)" fill="black" stroke="black" stroke-width="1.5"/>
<rect x="0.75" y="-0.75" width="1.5" height="50.5" transform="matrix(1 0 0 -1 3 62.5)" fill="black" stroke="black" stroke-width="1.5"/>
<rect x="321" y="9" width="1" height="1" fill="black"/>
<rect x="322" y="10" width="1" height="1" fill="black"/>
<rect x="323" y="11" width="1" height="1" fill="black"/>
<rect width="1" height="1" transform="matrix(-1 0 0 1 10 11)" fill="black"/>
<rect width="1" height="1" transform="matrix(-1 0 0 1 11 10)" fill="black"/>
<rect width="1" height="1" transform="matrix(-1 0 0 1 12 9)" fill="black"/>
<rect x="322" y="65" width="1" height="1" fill="black"/>
<rect x="323" y="64" width="1" height="1" fill="black"/>
<rect x="321" y="66" width="1" height="1" fill="black"/>
<rect width="1" height="1" transform="matrix(-1 0 0 1 10 64)" fill="black"/>
<rect width="1" height="1" transform="matrix(-1 0 0 1 11 65)" fill="black"/>
<rect width="1" height="1" transform="matrix(-1 0 0 1 12 66)" fill="black"/>
</svg>
