<svg width="318" height="304" viewBox="0 0 318 304" fill="none" xmlns="http://www.w3.org/2000/svg">
<rect x="1.25" y="181.25" width="21.5" height="21.5" fill="#2C2C2E" stroke="black" stroke-width="1.5"/>
<rect x="1.25" y="161.25" width="21.5" height="21.5" fill="#2C2C2E" stroke="black" stroke-width="1.5"/>
<rect x="1.25" y="141.25" width="21.5" height="21.5" fill="#2C2C2E" stroke="black" stroke-width="1.5"/>
<rect x="1.25" y="121.25" width="21.5" height="21.5" fill="#2C2C2E" stroke="black" stroke-width="1.5"/>
<rect x="1.25" y="101.25" width="21.5" height="21.5" fill="#2C2C2E" stroke="black" stroke-width="1.5"/>
<rect x="169.25" y="281.25" width="21.5" height="21.5" fill="#2C2C2E" stroke="black" stroke-width="1.5"/>
<rect x="169.25" y="261.25" width="21.5" height="21.5" fill="white" stroke="black" stroke-width="1.5"/>
<rect x="169.25" y="241.25" width="21.5" height="21.5" fill="white" stroke="black" stroke-width="1.5"/>
<rect x="169.25" y="221.25" width="21.5" height="21.5" fill="white" stroke="black" stroke-width="1.5"/>
<rect x="169.25" y="201.25" width="21.5" height="21.5" fill="white" stroke="black" stroke-width="1.5"/>
<rect x="169.25" y="181.25" width="21.5" height="21.5" fill="white" stroke="black" stroke-width="1.5"/>
<rect x="169.25" y="161.25" width="21.5" height="21.5" fill="#2C2C2E" stroke="black" stroke-width="1.5"/>
<rect x="169.25" y="141.25" width="21.5" height="21.5" fill="white" stroke="black" stroke-width="1.5"/>
<rect x="169.25" y="121.25" width="21.5" height="21.5" fill="white" stroke="black" stroke-width="1.5"/>
<rect x="169.25" y="101.25" width="21.5" height="21.5" fill="#2C2C2E" stroke="black" stroke-width="1.5"/>
<rect x="169.25" y="81.25" width="21.5" height="21.5" fill="#FC010A" stroke="black" stroke-width="1.5"/>
<rect x="169.25" y="61.25" width="21.5" height="21.5" fill="#FC010A" stroke="black" stroke-width="1.5"/>
<rect x="169.25" y="41.25" width="21.5" height="21.5" fill="#FC010A" stroke="black" stroke-width="1.5"/>
<rect x="169.25" y="21.25" width="21.5" height="21.5" fill="#FC010A" stroke="black" stroke-width="1.5"/>
<rect x="169.25" y="1.25" width="21.5" height="21.5" fill="#2C2C2E" stroke="black" stroke-width="1.5"/>
<rect x="85.25" y="261.25" width="21.5" height="21.5" fill="#2C2C2E" stroke="black" stroke-width="1.5"/>
<rect x="85.25" y="241.25" width="21.5" height="21.5" fill="white" stroke="black" stroke-width="1.5"/>
<rect x="85.25" y="221.25" width="21.5" height="21.5" fill="white" stroke="black" stroke-width="1.5"/>
<rect x="85.25" y="201.25" width="21.5" height="21.5" fill="white" stroke="black" stroke-width="1.5"/>
<rect x="85.25" y="181.25" width="21.5" height="21.5" fill="white" stroke="black" stroke-width="1.5"/>
<rect x="85.25" y="161.25" width="21.5" height="21.5" fill="white" stroke="black" stroke-width="1.5"/>
<rect x="85.25" y="141.25" width="21.5" height="21.5" fill="#2C2C2E" stroke="black" stroke-width="1.5"/>
<rect x="85.25" y="121.25" width="21.5" height="21.5" fill="#FC010A" stroke="black" stroke-width="1.5"/>
<rect x="85.25" y="101.25" width="21.5" height="21.5" fill="#FC010A" stroke="black" stroke-width="1.5"/>
<rect x="85.25" y="81.25" width="21.5" height="21.5" fill="#FC010A" stroke="black" stroke-width="1.5"/>
<rect x="85.25" y="61.25" width="21.5" height="21.5" fill="#FC010A" stroke="black" stroke-width="1.5"/>
<rect x="85.25" y="41.25" width="21.5" height="21.5" fill="#FC010A" stroke="black" stroke-width="1.5"/>
<rect x="85.25" y="21.25" width="21.5" height="21.5" fill="#2C2C2E" stroke="black" stroke-width="1.5"/>
<rect x="253.25" y="241.25" width="21.5" height="21.5" fill="#2C2C2E" stroke="black" stroke-width="1.5"/>
<rect x="253.25" y="221.25" width="21.5" height="21.5" fill="white" stroke="black" stroke-width="1.5"/>
<rect x="253.25" y="201.25" width="21.5" height="21.5" fill="white" stroke="black" stroke-width="1.5"/>
<rect x="253.25" y="181.25" width="21.5" height="21.5" fill="white" stroke="black" stroke-width="1.5"/>
<rect x="253.25" y="161.25" width="21.5" height="21.5" fill="white" stroke="black" stroke-width="1.5"/>
<rect x="253.25" y="141.25" width="21.5" height="21.5" fill="#2C2C2E" stroke="black" stroke-width="1.5"/>
<rect x="253.25" y="121.25" width="21.5" height="21.5" fill="#FC010A" stroke="black" stroke-width="1.5"/>
<rect x="253.25" y="101.25" width="21.5" height="21.5" fill="#FC010A" stroke="black" stroke-width="1.5"/>
<rect x="253.25" y="81.25" width="21.5" height="21.5" fill="#FC010A" stroke="black" stroke-width="1.5"/>
<rect x="253.25" y="61.25" width="21.5" height="21.5" fill="#FC010A" stroke="black" stroke-width="1.5"/>
<rect x="253.25" y="41.25" width="21.5" height="21.5" fill="#2C2C2E" stroke="black" stroke-width="1.5"/>
<rect x="22.25" y="221.25" width="21.5" height="21.5" fill="#2C2C2E" stroke="black" stroke-width="1.5"/>
<rect x="22.25" y="201.25" width="21.5" height="21.5" fill="#2C2C2E" stroke="black" stroke-width="1.5"/>
<rect x="22.25" y="181.25" width="21.5" height="21.5" fill="white" stroke="black" stroke-width="1.5"/>
<rect x="22.25" y="161.25" width="21.5" height="21.5" fill="white" stroke="black" stroke-width="1.5"/>
<rect x="22.25" y="141.25" width="21.5" height="21.5" fill="#2C2C2E" stroke="black" stroke-width="1.5"/>
<rect x="22.25" y="121.25" width="21.5" height="21.5" fill="#FC010A" stroke="black" stroke-width="1.5"/>
<rect x="22.25" y="101.25" width="21.5" height="21.5" fill="#FC010A" stroke="black" stroke-width="1.5"/>
<rect x="22.25" y="81.25" width="21.5" height="21.5" fill="#2C2C2E" stroke="black" stroke-width="1.5"/>
<rect x="22.25" y="61.25" width="21.5" height="21.5" fill="#2C2C2E" stroke="black" stroke-width="1.5"/>
<rect x="190.25" y="281.25" width="21.5" height="21.5" fill="#2C2C2E" stroke="black" stroke-width="1.5"/>
<rect x="190.25" y="261.25" width="21.5" height="21.5" fill="white" stroke="black" stroke-width="1.5"/>
<rect x="190.25" y="241.25" width="21.5" height="21.5" fill="white" stroke="black" stroke-width="1.5"/>
<rect x="190.25" y="221.25" width="21.5" height="21.5" fill="white" stroke="black" stroke-width="1.5"/>
<rect x="190.25" y="201.25" width="21.5" height="21.5" fill="white" stroke="black" stroke-width="1.5"/>
<rect x="190.25" y="181.25" width="21.5" height="21.5" fill="white" stroke="black" stroke-width="1.5"/>
<rect x="190.25" y="161.25" width="21.5" height="21.5" fill="white" stroke="black" stroke-width="1.5"/>
<rect x="190.25" y="141.25" width="21.5" height="21.5" fill="#2C2C2E" stroke="black" stroke-width="1.5"/>
<rect x="190.25" y="121.25" width="21.5" height="21.5" fill="#2C2C2E" stroke="black" stroke-width="1.5"/>
<rect x="190.25" y="101.25" width="21.5" height="21.5" fill="#FC010A" stroke="black" stroke-width="1.5"/>
<rect x="190.25" y="81.25" width="21.5" height="21.5" fill="#FC010A" stroke="black" stroke-width="1.5"/>
<rect x="190.25" y="61.25" width="21.5" height="21.5" fill="#FC010A" stroke="black" stroke-width="1.5"/>
<rect x="190.25" y="41.25" width="21.5" height="21.5" fill="#FC010A" stroke="black" stroke-width="1.5"/>
<rect x="190.25" y="21.25" width="21.5" height="21.5" fill="#FC010A" stroke="black" stroke-width="1.5"/>
<rect x="190.25" y="1.25" width="21.5" height="21.5" fill="#2C2C2E" stroke="black" stroke-width="1.5"/>
<rect x="106.25" y="281.25" width="21.5" height="21.5" fill="#2C2C2E" stroke="black" stroke-width="1.5"/>
<rect x="106.25" y="261.25" width="21.5" height="21.5" fill="white" stroke="black" stroke-width="1.5"/>
<rect x="106.25" y="241.25" width="21.5" height="21.5" fill="white" stroke="black" stroke-width="1.5"/>
<rect x="106.25" y="221.25" width="21.5" height="21.5" fill="white" stroke="black" stroke-width="1.5"/>
<rect x="106.25" y="201.25" width="21.5" height="21.5" fill="white" stroke="black" stroke-width="1.5"/>
<rect x="106.25" y="181.25" width="21.5" height="21.5" fill="white" stroke="black" stroke-width="1.5"/>
<rect x="106.25" y="161.25" width="21.5" height="21.5" fill="white" stroke="black" stroke-width="1.5"/>
<rect x="106.25" y="141.25" width="21.5" height="21.5" fill="#2C2C2E" stroke="black" stroke-width="1.5"/>
<rect x="106.25" y="121.25" width="21.5" height="21.5" fill="#2C2C2E" stroke="black" stroke-width="1.5"/>
<rect x="106.25" y="101.25" width="21.5" height="21.5" fill="#FC010A" stroke="black" stroke-width="1.5"/>
<rect x="106.25" y="81.25" width="21.5" height="21.5" fill="#FC010A" stroke="black" stroke-width="1.5"/>
<rect x="106.25" y="61.25" width="21.5" height="21.5" fill="#FC010A" stroke="black" stroke-width="1.5"/>
<rect x="106.25" y="41.25" width="21.5" height="21.5" fill="#FC010A" stroke="black" stroke-width="1.5"/>
<rect x="106.25" y="21.25" width="21.5" height="21.5" fill="#FC010A" stroke="black" stroke-width="1.5"/>
<rect x="106.25" y="1.25" width="21.5" height="21.5" fill="#2C2C2E" stroke="black" stroke-width="1.5"/>
<rect x="274.25" y="221.25" width="21.5" height="21.5" fill="#2C2C2E" stroke="black" stroke-width="1.5"/>
<rect x="274.25" y="201.25" width="21.5" height="21.5" fill="#2C2C2E" stroke="black" stroke-width="1.5"/>
<rect x="274.25" y="181.25" width="21.5" height="21.5" fill="white" stroke="black" stroke-width="1.5"/>
<rect x="274.25" y="161.25" width="21.5" height="21.5" fill="white" stroke="black" stroke-width="1.5"/>
<rect x="274.25" y="141.25" width="21.5" height="21.5" fill="#2C2C2E" stroke="black" stroke-width="1.5"/>
<rect x="274.25" y="121.25" width="21.5" height="21.5" fill="#FC010A" stroke="black" stroke-width="1.5"/>
<rect x="274.25" y="101.25" width="21.5" height="21.5" fill="#FC010A" stroke="black" stroke-width="1.5"/>
<rect x="274.25" y="81.25" width="21.5" height="21.5" fill="#2C2C2E" stroke="black" stroke-width="1.5"/>
<rect x="274.25" y="61.25" width="21.5" height="21.5" fill="#2C2C2E" stroke="black" stroke-width="1.5"/>
<rect x="43.25" y="241.25" width="21.5" height="21.5" fill="#2C2C2E" stroke="black" stroke-width="1.5"/>
<rect x="43.25" y="221.25" width="21.5" height="21.5" fill="white" stroke="black" stroke-width="1.5"/>
<rect x="43.25" y="201.25" width="21.5" height="21.5" fill="white" stroke="black" stroke-width="1.5"/>
<rect x="43.25" y="181.25" width="21.5" height="21.5" fill="white" stroke="black" stroke-width="1.5"/>
<rect x="43.25" y="161.25" width="21.5" height="21.5" fill="white" stroke="black" stroke-width="1.5"/>
<rect x="43.25" y="141.25" width="21.5" height="21.5" fill="#2C2C2E" stroke="black" stroke-width="1.5"/>
<rect x="43.25" y="121.25" width="21.5" height="21.5" fill="#FC010A" stroke="black" stroke-width="1.5"/>
<rect x="43.25" y="101.25" width="21.5" height="21.5" fill="#FC010A" stroke="black" stroke-width="1.5"/>
<rect x="43.25" y="81.25" width="21.5" height="21.5" fill="#FC010A" stroke="black" stroke-width="1.5"/>
<rect x="43.25" y="61.25" width="21.5" height="21.5" fill="#FC010A" stroke="black" stroke-width="1.5"/>
<rect x="43.25" y="41.25" width="21.5" height="21.5" fill="#2C2C2E" stroke="black" stroke-width="1.5"/>
<rect x="211.25" y="261.25" width="21.5" height="21.5" fill="#2C2C2E" stroke="black" stroke-width="1.5"/>
<rect x="211.25" y="241.25" width="21.5" height="21.5" fill="white" stroke="black" stroke-width="1.5"/>
<rect x="211.25" y="221.25" width="21.5" height="21.5" fill="white" stroke="black" stroke-width="1.5"/>
<rect x="211.25" y="201.25" width="21.5" height="21.5" fill="white" stroke="black" stroke-width="1.5"/>
<rect x="211.25" y="181.25" width="21.5" height="21.5" fill="white" stroke="black" stroke-width="1.5"/>
<rect x="211.25" y="161.25" width="21.5" height="21.5" fill="white" stroke="black" stroke-width="1.5"/>
<rect x="211.25" y="141.25" width="21.5" height="21.5" fill="#2C2C2E" stroke="black" stroke-width="1.5"/>
<rect x="211.25" y="121.25" width="21.5" height="21.5" fill="#FC010A" stroke="black" stroke-width="1.5"/>
<rect x="211.25" y="101.25" width="21.5" height="21.5" fill="#FC010A" stroke="black" stroke-width="1.5"/>
<rect x="211.25" y="81.25" width="21.5" height="21.5" fill="#FC010A" stroke="black" stroke-width="1.5"/>
<rect x="211.25" y="61.25" width="21.5" height="21.5" fill="#FC010A" stroke="black" stroke-width="1.5"/>
<rect x="211.25" y="41.25" width="21.5" height="21.5" fill="#FC010A" stroke="black" stroke-width="1.5"/>
<rect x="211.25" y="21.25" width="21.5" height="21.5" fill="#2C2C2E" stroke="black" stroke-width="1.5"/>
<rect x="127.25" y="281.25" width="21.5" height="21.5" fill="#2C2C2E" stroke="black" stroke-width="1.5"/>
<rect x="127.25" y="261.25" width="21.5" height="21.5" fill="white" stroke="black" stroke-width="1.5"/>
<rect x="127.25" y="241.25" width="21.5" height="21.5" fill="white" stroke="black" stroke-width="1.5"/>
<rect x="127.25" y="221.25" width="21.5" height="21.5" fill="white" stroke="black" stroke-width="1.5"/>
<rect x="127.25" y="201.25" width="21.5" height="21.5" fill="white" stroke="black" stroke-width="1.5"/>
<rect x="127.25" y="181.25" width="21.5" height="21.5" fill="white" stroke="black" stroke-width="1.5"/>
<rect x="127.25" y="161.25" width="21.5" height="21.5" fill="#2C2C2E" stroke="black" stroke-width="1.5"/>
<rect x="127.25" y="141.25" width="21.5" height="21.5" fill="white" stroke="black" stroke-width="1.5"/>
<rect x="127.25" y="121.25" width="21.5" height="21.5" fill="white" stroke="black" stroke-width="1.5"/>
<rect x="127.25" y="101.25" width="21.5" height="21.5" fill="#2C2C2E" stroke="black" stroke-width="1.5"/>
<rect x="127.25" y="81.25" width="21.5" height="21.5" fill="#FC010A" stroke="black" stroke-width="1.5"/>
<rect x="127.25" y="61.25" width="21.5" height="21.5" fill="#FC010A" stroke="black" stroke-width="1.5"/>
<rect x="127.25" y="41.25" width="21.5" height="21.5" fill="#FC010A" stroke="black" stroke-width="1.5"/>
<rect x="127.25" y="21.25" width="21.5" height="21.5" fill="#FC010A" stroke="black" stroke-width="1.5"/>
<rect x="127.25" y="1.25" width="21.5" height="21.5" fill="#2C2C2E" stroke="black" stroke-width="1.5"/>
<rect x="295.25" y="181.25" width="21.5" height="21.5" fill="#2C2C2E" stroke="black" stroke-width="1.5"/>
<rect x="295.25" y="161.25" width="21.5" height="21.5" fill="#2C2C2E" stroke="black" stroke-width="1.5"/>
<rect x="295.25" y="141.25" width="21.5" height="21.5" fill="#2C2C2E" stroke="black" stroke-width="1.5"/>
<rect x="295.25" y="121.25" width="21.5" height="21.5" fill="#2C2C2E" stroke="black" stroke-width="1.5"/>
<rect x="295.25" y="101.25" width="21.5" height="21.5" fill="#2C2C2E" stroke="black" stroke-width="1.5"/>
<rect x="64.25" y="261.25" width="21.5" height="21.5" fill="#2C2C2E" stroke="black" stroke-width="1.5"/>
<rect x="64.25" y="241.25" width="21.5" height="21.5" fill="white" stroke="black" stroke-width="1.5"/>
<rect x="64.25" y="221.25" width="21.5" height="21.5" fill="white" stroke="black" stroke-width="1.5"/>
<rect x="64.25" y="201.25" width="21.5" height="21.5" fill="white" stroke="black" stroke-width="1.5"/>
<rect x="64.25" y="181.25" width="21.5" height="21.5" fill="white" stroke="black" stroke-width="1.5"/>
<rect x="64.25" y="161.25" width="21.5" height="21.5" fill="white" stroke="black" stroke-width="1.5"/>
<rect x="64.25" y="141.25" width="21.5" height="21.5" fill="#2C2C2E" stroke="black" stroke-width="1.5"/>
<rect x="64.25" y="121.25" width="21.5" height="21.5" fill="#FC010A" stroke="black" stroke-width="1.5"/>
<rect x="64.25" y="101.25" width="21.5" height="21.5" fill="#FC010A" stroke="black" stroke-width="1.5"/>
<rect x="64.25" y="81.25" width="21.5" height="21.5" fill="#FC010A" stroke="black" stroke-width="1.5"/>
<rect x="64.25" y="61.25" width="21.5" height="21.5" fill="#FC010A" stroke="black" stroke-width="1.5"/>
<rect x="64.25" y="41.25" width="21.5" height="21.5" fill="#FC010A" stroke="black" stroke-width="1.5"/>
<rect x="64.25" y="21.25" width="21.5" height="21.5" fill="#2C2C2E" stroke="black" stroke-width="1.5"/>
<rect x="232.25" y="261.25" width="21.5" height="21.5" fill="#2C2C2E" stroke="black" stroke-width="1.5"/>
<rect x="232.25" y="241.25" width="21.5" height="21.5" fill="white" stroke="black" stroke-width="1.5"/>
<rect x="232.25" y="221.25" width="21.5" height="21.5" fill="white" stroke="black" stroke-width="1.5"/>
<rect x="232.25" y="201.25" width="21.5" height="21.5" fill="white" stroke="black" stroke-width="1.5"/>
<rect x="232.25" y="181.25" width="21.5" height="21.5" fill="white" stroke="black" stroke-width="1.5"/>
<rect x="232.25" y="161.25" width="21.5" height="21.5" fill="white" stroke="black" stroke-width="1.5"/>
<rect x="232.25" y="141.25" width="21.5" height="21.5" fill="#2C2C2E" stroke="black" stroke-width="1.5"/>
<rect x="232.25" y="121.25" width="21.5" height="21.5" fill="#FC010A" stroke="black" stroke-width="1.5"/>
<rect x="232.25" y="101.25" width="21.5" height="21.5" fill="#FC010A" stroke="black" stroke-width="1.5"/>
<rect x="232.25" y="81.25" width="21.5" height="21.5" fill="#FC010A" stroke="black" stroke-width="1.5"/>
<rect x="232.25" y="61.25" width="21.5" height="21.5" fill="#FC010A" stroke="black" stroke-width="1.5"/>
<rect x="232.25" y="41.25" width="21.5" height="21.5" fill="#FC010A" stroke="black" stroke-width="1.5"/>
<rect x="232.25" y="21.25" width="21.5" height="21.5" fill="#2C2C2E" stroke="black" stroke-width="1.5"/>
<rect x="148.25" y="281.25" width="21.5" height="21.5" fill="#2C2C2E" stroke="black" stroke-width="1.5"/>
<rect x="148.25" y="261.25" width="21.5" height="21.5" fill="white" stroke="black" stroke-width="1.5"/>
<rect x="148.25" y="241.25" width="21.5" height="21.5" fill="white" stroke="black" stroke-width="1.5"/>
<rect x="148.25" y="221.25" width="21.5" height="21.5" fill="white" stroke="black" stroke-width="1.5"/>
<rect x="148.25" y="201.25" width="21.5" height="21.5" fill="white" stroke="black" stroke-width="1.5"/>
<rect x="148.25" y="181.25" width="21.5" height="21.5" fill="white" stroke="black" stroke-width="1.5"/>
<rect x="148.25" y="161.25" width="21.5" height="21.5" fill="#2C2C2E" stroke="black" stroke-width="1.5"/>
<rect x="148.25" y="141.25" width="21.5" height="21.5" fill="white" stroke="black" stroke-width="1.5"/>
<rect x="148.25" y="121.25" width="21.5" height="21.5" fill="white" stroke="black" stroke-width="1.5"/>
<rect x="148.25" y="101.25" width="21.5" height="21.5" fill="#2C2C2E" stroke="black" stroke-width="1.5"/>
<rect x="148.25" y="81.25" width="21.5" height="21.5" fill="#FC010A" stroke="black" stroke-width="1.5"/>
<rect x="148.25" y="61.25" width="21.5" height="21.5" fill="#FC010A" stroke="black" stroke-width="1.5"/>
<rect x="148.25" y="41.25" width="21.5" height="21.5" fill="#FC010A" stroke="black" stroke-width="1.5"/>
<rect x="148.25" y="21.25" width="21.5" height="21.5" fill="#FC010A" stroke="black" stroke-width="1.5"/>
<rect x="148.25" y="1.25" width="21.5" height="21.5" fill="#2C2C2E" stroke="black" stroke-width="1.5"/>
</svg>
